<?xml version="1.0" encoding="utf-8"?>
<!-- Generator: Adobe Illustrator 24.3.0, SVG Export Plug-In . SVG Version: 6.00 Build 0)  -->
<svg version="1.0" id="圖層_1" xmlns="http://www.w3.org/2000/svg" xmlns:xlink="http://www.w3.org/1999/xlink" x="0px" y="0px"
	 viewBox="0 0 560 220" style="enable-background:new 0 0 560 220;" xml:space="preserve">
<style type="text/css">
	.st0{fill:#FFFFFF;}
	.st1{fill:#BDA16C;}
</style>
<g>
	<g>
		<path class="st0" d="M363.5,26.3l3.9,7.1c-8.2,0.4-17.3,0.8-27.1,1v1.9h32.9v7.1h-32.9v1.5h27.1v24.5h-27.1v1.7h28.6v7.1h-28.6
			v1.5h32.9v7.8h-73v-7.8h31.3v-1.5h-27.3v-7.1h27.3v-1.7h-25.7V44.9h25.7v-1.5h-31v-7.1h31v-1.7c-7.9,0.2-16.2,0.3-25.2,0.3
			l-2.2-7.1C323.8,27.8,343.6,27.3,363.5,26.3z M300.9,16.5h17.4v-2.9h9v2.9h18.2v-2.9h9v2.9h17.7v7.7h-17.7v1.7h-9v-1.7h-18.2v2.3
			h-9v-2.3h-17.4V16.5z M314.7,54h16.7v-2h-16.7V54z M314.7,62.3h16.7v-1.9h-16.7V62.3z M340.2,52v2h18v-2H340.2z M340.2,60.5v1.9
			h18v-1.9H340.2z"/>
		<path class="st0" d="M456.9,59.5v19h6.1v8.7h-73v-8.7h5.5v-19H456.9z M430.3,14.6v8.8h-11.9v2.9h11.3v5.2c1.3-2,2.4-4.3,3.5-6.7
			c1.9-3.9,3.3-7.6,4.2-11.1l9.4,2.9c-0.6,2.2-1.4,4.4-2.3,6.5H463v9h-22.4c-1.8,3.4-3.7,6.4-5.6,9l-5.2-3.8v8h-11.3v3.6h11.6v8.8
			h-29.8v1.2h-9V14.6H430.3z M400.3,26.3h9.4v-2.9h-9.4V26.3z M400.3,37.5H421v-3.5h-20.7V37.5z M400.3,48.8h9v-3.6h-9V48.8z
			 M404.9,78.5h7.7V68.2h-7.7V78.5z M421.7,78.5h8.6V68.2h-8.6V78.5z M434.5,43.7h26.5v9h-26.5V43.7z M439.5,78.5h8V68.2h-8V78.5z"
			/>
		<path class="st0" d="M482,16.8h30.7v-3.2h9.1v3.2h32.5v8.1h-32.5v2.6h27.8v17.4h-27.8v2.3h28.3v10.6h5.6v8.3h-5.6v13h-9v-2.3
			h-19.4c0,4.4-0.6,7.4-1.9,9c-1.5,1.8-4.2,2.7-8.1,2.7c-4.2,0-8.1-0.3-11.9-1l-1.7-9c4.1,0.8,8.3,1.2,12.3,1.2c0.9,0,1.5-0.3,1.8-1
			c0.2-0.5,0.3-1.1,0.3-1.9h-28v-8h28.1v-2.7H481v-8.3h31.6v-2.7h-28.1v-8h28.1v-2.3h-27V27.5h27v-2.6H482V16.8z M494.6,37.6h18.1
			v-2.7h-18.1V37.6z M521.8,34.9v2.7h18.6v-2.7H521.8z M521.8,55.2v2.7h19.4v-2.7H521.8z M521.8,66.2v2.7h19.4v-2.7H521.8z"/>
	</g>
	<path class="st0" d="M298.1,143.2h32.4v-19.4h10.9v19.4h32.9v10.2h-30.1c2.6,9.1,6.4,16.9,11.3,23.5c5.5,7.6,12.8,13.4,22,17.5
		l-5.7,10.9c-9.5-4.5-17.7-11.3-24.5-20.6c-3.8-4.9-7-10.6-9.8-17c-2,4.9-4.6,9.5-7.8,13.9c-7.3,9.6-16.5,17.5-27.6,23.7l-6.1-9.6
		c12-6.9,20.9-14.6,26.6-23.3c3.9-6.2,6.4-12.5,7.4-19h-31.8V143.2z"/>
	<path class="st0" d="M385.5,137h29.6v9.8h-29.6V137z M413.1,174.7v30.7h-9.5v-3.5h-6.4v3.5h-9.4v-30.7H413.1z M388.7,161.9h22.9
		v9.6h-22.9V161.9z M389.1,149.7H412v9.5h-22.9V149.7z M389.4,125.3h22.2v9.4h-22.2V125.3z M397.2,193.1h6.4v-9.2h-6.4V193.1z
		 M417.4,128.1h8.8v-4.2h9.9v4.2h9.2v-4.6h9.9v4.6h9.5v8.6h-9.5v2.4h7.8v8.1h-7.8v2.8h11.3v8.5h-20.8v2.6h18.3v22.6h3.5v8.4h-3.5
		v1.9c0,7.5-4.1,11.3-12.3,11.3c-1.8,0-3.9-0.4-6.3-1.1l-2.2-9.8c3.2,1.1,6,1.7,8.6,1.7c1.5,0,2.3-1.3,2.4-3.9h-26.1v12.8h-9.8
		v-12.8h-3.2v-8.4h3.2V161h18v-2.6h-20.5v-8.5h10.7v-2.8h-6.8V139h6.8v-2.4h-8.8V128.1z M427.9,172.3h8.2v-2.9h-8.2V172.3z
		 M427.9,183.5h8.2v-3.3h-8.2V183.5z M445.2,139v-2.4h-9.2v2.4H445.2z M436.1,149.9h9.2v-2.8h-9.2V149.9z M445.6,169.3v2.9h8.4v-2.9
		H445.6z M445.6,183.5h8.4v-3.3h-8.4V183.5z"/>
	<path class="st0" d="M498.7,124.6c3.2,2.9,5.8,6,7.8,9.3l-4.1,2.4h10.8v-12.3h10.1v12.3h6.1c2.3-3.7,4.3-7.6,5.9-11.6l11.7,3.2
		c-1.7,3.1-3.5,5.9-5.4,8.5h16.7V156H548v-10h-59.3v10h-10.2v-19.8h16.4c-1.6-2-3.4-4-5.5-5.9L498.7,124.6z M491.6,149.9h53.6v25.8
		h-21.6v4.2h27.6v9.9h-27.6v4.6h33.5v9.9h-77.5v-9.9h33.9v-4.6h-28.7V180h28.7v-4.2h-21.9V149.9z M501.8,166.2h33.1v-6.6h-33.1
		V166.2z"/>
	<g>
		<g>
			<path class="st1" d="M177.9,205.4h-51.3L113.9,174H63.8l-11.8,31.4H1.7L59.2,70.5h62.9L177.9,205.4z M108,150.8l-9.6-27.1
				c-2.8-8-6.5-20.1-9.3-28.3h-0.6c-2.8,8.2-6.5,20.6-9,28.3l-9.9,27.1H108z"/>
			<path class="st1" d="M211.4,70.5H261v134.9h-49.6V70.5z"/>
		</g>
	</g>
	<g>
		<path class="st0" d="M92.9,25.2l-4.5-10.8h-8.9l5.4,13C88.9,26.2,91.5,25.5,92.9,25.2L92.9,25.2z M83.1,35.5
			c-1.7,0.9-5.5,3.3-8.8,6.6l3.6,7.7c3.9,0,7.8,0.3,11.5,0.8L83.1,35.5z M51.3,53.3c0.6-0.2,1.3-0.4,1.9-0.5c0,0,0,0,0.1,0
			c0.3-0.1,0.6-0.2,0.9-0.2c0,0,0,0,0,0c0.7-0.2,1.3-0.3,2-0.5c1.6-0.4,3.2-0.7,4.8-0.9c6.7-8.7,14.3-14.3,25.7-19.4l8.3,19.9
			c3.5,0.7,6.9,1.6,10,2.7L94.3,28.6c3.2-1.2,6.7-2.4,10.5-3.7l0.8-1.3c-8.1,1.7-16.7,3.9-24.8,6.7l-6.7-15.9h-8.4L48.6,53.8
			c-0.1,0.1-0.1,0.3-0.2,0.4c0.3-0.1,0.6-0.2,0.9-0.3c0.1,0,0.2-0.1,0.2-0.1c0.2-0.1,0.4-0.1,0.6-0.2c0.1,0,0.2-0.1,0.3-0.1
			c0.2-0.1,0.5-0.2,0.7-0.2C51.2,53.3,51.2,53.3,51.3,53.3L51.3,53.3z M67.6,27.8l3.1,6.7c-3,1.5-5.9,3-8.5,4.7L67.6,27.8z"/>
		<path class="st0" d="M122,49.7v-9.6h-3.5v-2.7h9.8v2.7h-3.5v9.6H122z M130.7,50c-1,0-1.8-0.3-2.4-0.8c-0.6-0.5-0.9-1.2-0.9-2.1
			c0-0.6,0.2-1.1,0.5-1.5c0.3-0.4,0.7-0.8,1.3-1c0.5-0.2,1.2-0.4,1.9-0.4c0.4,0,0.7,0,1.1,0.1c0.4,0.1,0.6,0.1,0.9,0.2V44
			c0-0.4-0.1-0.7-0.4-0.9c-0.3-0.2-0.6-0.3-1.1-0.3c-0.4,0-0.9,0.1-1.4,0.2c-0.5,0.2-1,0.4-1.5,0.7l-0.8-2c0.6-0.4,1.2-0.6,1.8-0.8
			c0.7-0.2,1.4-0.3,2.1-0.3c1.3,0,2.3,0.3,2.9,0.9c0.6,0.6,1,1.5,1,2.6v5.7h-2.6v-0.6c-0.3,0.3-0.6,0.5-1,0.6
			C131.7,49.9,131.2,50,130.7,50z M131.4,47.8c0.3,0,0.6,0,0.9-0.1c0.3-0.1,0.6-0.3,0.8-0.4v-0.7c-0.2-0.1-0.5-0.1-0.7-0.2
			c-0.3,0-0.5-0.1-0.8-0.1c-0.5,0-0.8,0.1-1.1,0.2c-0.3,0.1-0.4,0.4-0.4,0.6c0,0.2,0.1,0.4,0.3,0.5C130.7,47.7,131,47.8,131.4,47.8z
			 M137.3,49.7v-9h2.6v9H137.3z M138.6,40c-0.4,0-0.8-0.1-1.1-0.4s-0.4-0.7-0.4-1.1c0-0.4,0.1-0.7,0.4-1c0.3-0.3,0.6-0.4,1.1-0.4
			c0.4,0,0.8,0.1,1.1,0.4c0.3,0.3,0.4,0.6,0.4,1c0,0.4-0.1,0.8-0.4,1.1C139.4,39.8,139.1,40,138.6,40z M143.6,49.7l-2.6-9h2.6
			l0.9,3.5c0,0.2,0.1,0.4,0.1,0.6c0.1,0.3,0.1,0.5,0.1,0.7c0-0.2,0.1-0.5,0.2-0.7c0.1-0.3,0.1-0.5,0.2-0.6l0.9-3.5h2.4l0.9,3.5
			c0,0.2,0.1,0.4,0.2,0.6c0.1,0.3,0.1,0.5,0.2,0.7c0-0.2,0.1-0.5,0.1-0.7c0.1-0.3,0.1-0.5,0.1-0.6l0.9-3.5h2.6l-2.6,9h-2.3l-0.9-3.9
			c0-0.2-0.1-0.4-0.1-0.7c-0.1-0.3-0.1-0.6-0.2-0.8c0,0.2-0.1,0.5-0.2,0.8c-0.1,0.3-0.1,0.5-0.2,0.7l-0.9,3.9H143.6z M156.9,50
			c-1,0-1.8-0.3-2.4-0.8c-0.6-0.5-0.9-1.2-0.9-2.1c0-0.6,0.2-1.1,0.5-1.5c0.3-0.4,0.7-0.8,1.3-1c0.6-0.2,1.2-0.4,1.9-0.4
			c0.4,0,0.7,0,1.1,0.1c0.4,0.1,0.6,0.1,0.9,0.2V44c0-0.4-0.1-0.7-0.4-0.9c-0.3-0.2-0.6-0.3-1.1-0.3c-0.4,0-0.9,0.1-1.4,0.2
			c-0.5,0.2-1,0.4-1.5,0.7l-0.8-2c0.6-0.4,1.2-0.6,1.8-0.8c0.7-0.2,1.4-0.3,2.1-0.3c1.3,0,2.3,0.3,2.9,0.9c0.6,0.6,1,1.5,1,2.6v5.7
			h-2.6v-0.6c-0.3,0.3-0.6,0.5-1,0.6C157.8,49.9,157.4,50,156.9,50z M157.5,47.8c0.3,0,0.6,0,0.9-0.1c0.3-0.1,0.6-0.3,0.8-0.4v-0.7
			c-0.2-0.1-0.5-0.1-0.7-0.2c-0.3,0-0.5-0.1-0.8-0.1c-0.5,0-0.8,0.1-1.1,0.2c-0.3,0.1-0.4,0.4-0.4,0.6c0,0.2,0.1,0.4,0.3,0.5
			C156.8,47.7,157.1,47.8,157.5,47.8z M163.5,49.7v-9h2.6v0.8c0.3-0.3,0.6-0.6,1.1-0.8c0.4-0.2,0.9-0.3,1.4-0.3
			c0.9,0,1.7,0.3,2.3,0.9s0.8,1.4,0.8,2.4v5.9H169v-4.6c0-0.7-0.1-1.3-0.3-1.6c-0.2-0.3-0.6-0.5-1.1-0.5c-0.5,0-0.9,0.2-1.2,0.5
			c-0.2,0.3-0.4,0.8-0.4,1.5v4.6H163.5z M175.2,49.7l4.9-12.3h2.7l4.9,12.3h-3l-0.9-2.3h-4.6l-0.9,2.3H175.2z M180.1,44.8h2.7
			l-1-2.5c0-0.1-0.1-0.2-0.1-0.3c0-0.1-0.1-0.2-0.1-0.3c0-0.1-0.1-0.2-0.1-0.3c0,0.1-0.1,0.2-0.1,0.3c0,0.1-0.1,0.2-0.1,0.3
			c0,0.1-0.1,0.2-0.1,0.3L180.1,44.8z M188.3,49.7V37.5h2.8v12.3H188.3z M194.8,49.7l4.9-12.3h2.7l4.9,12.3h-3l-0.9-2.3h-4.6
			l-0.9,2.3H194.8z M199.6,44.8h2.7l-1-2.5c0-0.1-0.1-0.2-0.1-0.3c0-0.1-0.1-0.2-0.1-0.3c0-0.1-0.1-0.2-0.1-0.3
			c0,0.1-0.1,0.2-0.1,0.3c0,0.1-0.1,0.2-0.1,0.3c0,0.1-0.1,0.2-0.1,0.3L199.6,44.8z M211.6,50c-0.9,0-1.6-0.2-2.2-0.6
			c-0.6-0.4-1.1-0.9-1.5-1.6c-0.3-0.7-0.5-1.5-0.5-2.5c0-1,0.2-1.8,0.5-2.5c0.4-0.7,0.8-1.3,1.5-1.6c0.6-0.4,1.4-0.6,2.2-0.6
			c1,0,1.9,0.2,2.5,0.7c0.7,0.5,1.2,1.2,1.5,2.1l-2.5,0.8c-0.1-0.4-0.3-0.7-0.6-0.9c-0.3-0.2-0.5-0.3-0.9-0.3
			c-0.5,0-0.8,0.2-1.1,0.6c-0.3,0.4-0.4,0.9-0.4,1.6s0.1,1.1,0.4,1.6c0.3,0.4,0.7,0.6,1.1,0.6c0.4,0,0.7-0.1,0.9-0.3
			c0.3-0.2,0.4-0.5,0.6-1l2.5,0.7c-0.3,1-0.8,1.8-1.4,2.3C213.4,49.7,212.6,50,211.6,50z M219.5,50c-1,0-1.8-0.3-2.4-0.8
			c-0.6-0.5-0.9-1.2-0.9-2.1c0-0.6,0.2-1.1,0.5-1.5c0.3-0.4,0.7-0.8,1.3-1c0.6-0.2,1.2-0.4,1.9-0.4c0.4,0,0.7,0,1.1,0.1
			c0.4,0.1,0.7,0.1,0.9,0.2V44c0-0.4-0.1-0.7-0.4-0.9c-0.3-0.2-0.6-0.3-1.1-0.3c-0.4,0-0.9,0.1-1.4,0.2c-0.5,0.2-1,0.4-1.5,0.7
			l-0.8-2c0.6-0.4,1.2-0.6,1.8-0.8c0.7-0.2,1.4-0.3,2.1-0.3c1.3,0,2.3,0.3,2.9,0.9c0.6,0.6,1,1.5,1,2.6v5.7h-2.6v-0.6
			c-0.3,0.3-0.6,0.5-1,0.6C220.5,49.9,220,50,219.5,50z M220.2,47.8c0.3,0,0.6,0,0.9-0.1c0.3-0.1,0.6-0.3,0.8-0.4v-0.7
			c-0.2-0.1-0.5-0.1-0.7-0.2c-0.3,0-0.5-0.1-0.8-0.1c-0.5,0-0.8,0.1-1.1,0.2c-0.3,0.1-0.4,0.4-0.4,0.6c0,0.2,0.1,0.4,0.3,0.5
			C219.5,47.7,219.8,47.8,220.2,47.8z M229.3,50c-1.2,0-2.1-0.4-2.7-1.2c-0.6-0.8-1-2-1-3.5c0-0.9,0.2-1.7,0.5-2.4
			c0.3-0.7,0.8-1.3,1.3-1.7c0.6-0.4,1.2-0.6,1.9-0.6c0.7,0,1.3,0.3,1.8,0.9v-3.2l2.6-1.2v12.7h-2.6V49C230.8,49.6,230.2,50,229.3,50
			z M229.8,47.4c0.3,0,0.6,0,0.8-0.1c0.2-0.1,0.4-0.2,0.5-0.4v-3.2c-0.1-0.2-0.3-0.3-0.6-0.4c-0.2-0.1-0.5-0.1-0.8-0.1
			c-0.5,0-0.9,0.2-1.1,0.6c-0.3,0.4-0.4,0.9-0.4,1.6c0,0.5,0.1,0.9,0.2,1.2c0.1,0.3,0.3,0.6,0.5,0.7
			C229.2,47.3,229.5,47.4,229.8,47.4z M239.4,50c-0.9,0-1.7-0.2-2.3-0.6c-0.6-0.4-1.1-0.9-1.5-1.6c-0.3-0.7-0.5-1.5-0.5-2.5
			c0-1,0.2-1.8,0.5-2.5c0.4-0.7,0.8-1.2,1.5-1.6c0.6-0.4,1.4-0.6,2.3-0.6c0.8,0,1.4,0.2,2.1,0.5c0.6,0.3,1.1,0.8,1.5,1.4
			c0.4,0.6,0.5,1.4,0.5,2.4c0,0.2,0,0.4,0,0.6c0,0.2,0,0.5-0.1,0.7h-5.7c0,0.3,0.1,0.6,0.2,0.8c0.1,0.2,0.3,0.4,0.6,0.5
			c0.3,0.1,0.6,0.2,0.9,0.2c0.5,0,0.8-0.1,1.1-0.2c0.3-0.1,0.6-0.4,0.9-0.7l1.5,1.5c-0.4,0.5-0.9,0.9-1.5,1.2
			C240.8,49.8,240.1,50,239.4,50z M237.7,44.2h3.2c0-0.3-0.1-0.6-0.3-0.8c-0.1-0.2-0.3-0.4-0.5-0.5c-0.2-0.1-0.5-0.2-0.8-0.2
			c-0.4,0-0.8,0.1-1.1,0.4C237.9,43.4,237.7,43.7,237.7,44.2z M244.6,49.7v-9h2.6v0.8c0.3-0.4,0.6-0.6,1-0.8
			c0.3-0.2,0.7-0.2,1.1-0.2c0.5,0,1,0.1,1.3,0.3c0.4,0.2,0.6,0.5,0.8,0.9c0.3-0.4,0.7-0.7,1.2-0.9c0.5-0.2,1-0.3,1.6-0.3
			c1.2,0,2.1,0.3,2.6,0.9c0.6,0.6,0.8,1.5,0.8,2.8v5.5h-2.6v-4.5c0-0.7-0.1-1.3-0.3-1.6c-0.2-0.3-0.5-0.5-1-0.5
			c-0.3,0-0.6,0.1-0.8,0.2c-0.2,0.1-0.3,0.3-0.4,0.6c-0.1,0.3-0.1,0.7-0.1,1.2v4.6h-2.6v-4.5c0-0.7-0.1-1.3-0.3-1.6
			c-0.2-0.3-0.5-0.5-1-0.5c-0.5,0-0.8,0.1-1,0.4c-0.2,0.3-0.3,0.8-0.3,1.6v4.6H244.6z M260.4,53.1l1.4-3.5l-3.4-8.9h2.7l1.8,4.7
			c0,0.1,0.1,0.2,0.1,0.4c0.1,0.2,0.1,0.3,0.1,0.4c0-0.1,0.1-0.3,0.1-0.4c0.1-0.2,0.1-0.3,0.1-0.4l1.8-4.7h2.7l-4.8,12.4H260.4z"/>
		<path class="st0" d="M134.7,20.8l-2.2,1.6c-0.2-0.4-0.5-0.8-0.8-1.3c-9.2,0.4-10.6,0.4-11.7,0.8c-0.1-0.5-0.6-1.8-0.9-2.5
			c0.5-0.1,0.9-0.5,1.5-1c0.6-0.6,2.5-2.7,3.6-4.8l2.6,1.1c-1,1.5-2.3,3-3.6,4.2l6.4-0.2c-0.6-0.7-1.2-1.4-1.8-2l2-1.4
			C131.6,17,133.8,19.3,134.7,20.8z M130.1,25.5h-7.1v2.3h7.1V25.5z M120.4,31.1V23h12.6v8.2h-2.8v-0.9h-7.1v0.9H120.4z M149.3,17.1
			L149.3,17.1l-4.2,0v-1.3h1.6c-0.1-0.4-0.3-0.8-0.5-1.2l1.7-0.3c0.2,0.4,0.5,1,0.6,1.4l-0.6,0.1h1.5v1.3c0.2-0.1,0.3-0.3,0.5-0.5
			c0.2-0.3,0.8-1.4,1.1-2.4l1.4,0.5c-0.3,0.6-0.7,1.3-1.1,1.9l0.6,0c0.1-0.3,0.3-0.5,0.4-0.8l1.3,0.6c-0.5,0.8-1.1,1.7-1.8,2.5
			l0.7-0.1c-0.1-0.1-0.1-0.3-0.2-0.4l1-0.4c0.3,0.6,0.6,1.4,0.8,2l-1,0.4c0-0.1-0.1-0.3-0.1-0.5c-2.2,0.3-2.6,0.4-3,0.5
			c-0.1-0.2-0.3-0.7-0.5-1c0.3-0.1,0.6-0.3,0.9-0.6c0.2-0.2,0.5-0.5,0.8-1c-0.8,0.1-1.1,0.1-1.3,0.2
			C149.7,17.9,149.5,17.4,149.3,17.1z M152.3,23.1l-1.1,0.4c0-0.6-0.1-1.5-0.3-2.2L152,21C152.2,21.6,152.3,22.5,152.3,23.1z
			 M149.7,20.8l1.2,0.3c-0.1,0.9-0.4,1.8-0.7,2.4c-0.2-0.2-0.7-0.6-1-0.7C149.5,22.2,149.6,21.5,149.7,20.8z M149.1,18.9V20h-3.5
			v-1.1H149.1z M147.1,21.5v0.6h0.5v-0.6H147.1z M145.6,23.1v-2.7h3.5v2.7H145.6z M149.1,17.5v1.1h-3.5v-1.1H149.1z M145.4,20
			l-1.1,0.4c0-0.2-0.1-0.3-0.1-0.5c-2.2,0.3-2.6,0.4-3,0.5c-0.1-0.2-0.3-0.7-0.5-1c0.3-0.1,0.5-0.3,0.9-0.6c0.2-0.2,0.5-0.5,0.8-1
			c-0.8,0.1-1.1,0.1-1.3,0.2c-0.1-0.2-0.3-0.7-0.5-1c0.2,0,0.4-0.2,0.6-0.5s0.8-1.4,1.1-2.4l1.4,0.5c-0.3,0.6-0.7,1.3-1.1,1.9l0.6,0
			c0.1-0.3,0.3-0.5,0.4-0.8l1.3,0.6c-0.5,0.8-1.1,1.7-1.8,2.5l0.7-0.1c-0.1-0.1-0.1-0.3-0.2-0.4l1-0.4C145,18.7,145.3,19.5,145.4,20
			z M145.2,22.4l-1,0.5c0-0.5-0.2-1.3-0.4-1.9l1-0.4C145,21.1,145.2,21.9,145.2,22.4z M143.8,22.9l-1.1,0.4c0-0.5-0.1-1.4-0.3-2
			l1.1-0.3C143.6,21.5,143.8,22.3,143.8,22.9z M141.1,20.9l1.2,0.3c-0.1,0.9-0.4,1.8-0.7,2.4c-0.2-0.2-0.7-0.6-1-0.7
			C140.9,22.3,141,21.6,141.1,20.9z M141.4,16l-1.6,2c-0.5-0.6-1.7-1.4-2.6-2l1.5-1.8C139.6,14.7,140.8,15.5,141.4,16z M141,20.6
			l-1.5,2c-0.5-0.5-1.7-1.3-2.6-1.8l1.4-1.8C139.2,19.4,140.4,20.1,141,20.6z M139.6,30.9l-2.3-1.3c0.7-1.4,1.6-3.7,2.3-5.8l2.1,1.3
			C141,27.1,140.3,29.1,139.6,30.9z M144.7,27.1h8.8c0,0,0,0.6-0.1,0.9c-0.2,1.4-0.5,2.2-1,2.6c-0.5,0.4-1.1,0.5-1.9,0.5
			c-0.6,0-1.7,0-2.9,0c0-0.6-0.3-1.4-0.7-1.9c1,0.1,2.2,0.1,2.7,0.1c0.4,0,0.6,0,0.8-0.1c0.1-0.1,0.3-0.3,0.4-0.6h-9
			c0.3-0.9,0.6-2.2,0.8-3.3h7.5v-0.4h-8v-1.4h10.4v3.2h-7.8L144.7,27.1z M152.4,21l1-0.4c0.3,0.7,0.5,1.6,0.6,2.1l-1,0.5
			C152.9,22.6,152.6,21.7,152.4,21z M162.7,14h3c0,0.8-0.1,1.9-0.1,3c0.3,2.6,1.4,8.9,7.6,11.7c-0.8,0.6-1.5,1.5-1.9,2.3
			c-3.8-1.8-5.8-5-6.9-7.9c-1,3-2.9,5.9-6.4,8.1c-0.5-0.7-1.3-1.5-2.2-2.1C163.1,25,162.6,17.3,162.7,14z M184.8,27.3h6.9V30h-16.6
			v-2.6h6.7v-8.8h-5.7v-2.7h14.5v2.7h-5.9V27.3z M196.1,18.2h1.2v-0.3v-0.6h-0.6C196.5,17.6,196.3,17.9,196.1,18.2z M205.8,25.4
			h-6.9V26h6.9V25.4z M198.9,28.5h6.9v-0.6h-6.9V28.5z M202.5,21.6l-1.9,1.6c-0.5-0.4-1.3-1.1-2.1-1.6c-0.5,0.6-1.1,1.2-1.9,1.7
			h11.9v7.8h-2.7v-0.6h-6.9v0.6h-2.6v-7.6c-0.3,0.2-0.6,0.3-0.9,0.5c-0.3-0.5-1.1-1.3-1.7-1.7c1.6-0.6,2.4-1.3,2.9-2.1H194v-2h1.2
			c-0.5-0.3-1.1-0.6-1.5-0.8c0.9-0.8,1.6-2.1,1.9-3.5l2.3,0.5c-0.1,0.3-0.2,0.6-0.3,1h4.2v2h-2.2V18v0.2h2.6v2H200
			C200.8,20.6,202.1,21.3,202.5,21.6z M207.4,20.2v-2.6h-2.2v2.6H207.4z M202.8,15.3h7.2v7.2h-7.2V15.3z M223.7,20.5v-0.6h-2.4v-1.5
			h2.4V18h-2v-1.5h2v-0.4h-2.3v-1.5h2.3V14h2.4v0.6h2.6v1.5h-2.6v0.4h2.3V18h-2.3v0.4h3v1.5h-3v0.6H223.7z M216,20.5v-0.6h-2.8v-1.5
			h2.8V18h-2.1v-1.5h2.1v-0.4h-2.5v-1.5h2.5V14h2.4v0.6h2.3v1.5h-2.3v0.4h2.1V18h-2.1v0.4h2.5v1.5h-2.5v0.6H216z M225.3,24.5v-0.4
			H213v-1.5h12.3v-0.4h-10.7v-1.6h13.3v2h1.7v1.5h-1.7v2h-5.3c0.5,0.3,0.9,0.7,1.2,1l-1.8,1.5c-0.4-0.5-1.3-1.3-2.1-1.8l0.8-0.7
			h-6.2v-1.6H225.3z M214.9,30.9l-2.2-1.4c0.9-0.7,1.7-1.9,2.2-3l2.3,1C216.5,28.6,215.8,30,214.9,30.9z M229.8,29.5l-2.3,1.3
			c-0.3-0.6-0.8-1.3-1.5-2.1c-0.3,1.7-1.1,2.2-2.8,2.2h-2.8c-2.7,0-3.3-0.7-3.3-2.7v-1.7h2.6v1.7c0,0.5,0.1,0.6,1,0.6h2.2
			c0.6,0,0.8-0.2,0.9-1.2c0.4,0.3,1.2,0.6,1.8,0.8c-0.3-0.3-0.5-0.6-0.8-0.8l2.1-1.2C228,27.2,229.2,28.6,229.8,29.5z M242.3,16.2
			l-1.2,1.1c-0.2-0.2-0.5-0.4-0.8-0.6c-0.4,0.3-0.9,0.6-1.3,0.8c-0.3-0.3-0.9-0.9-1.3-1.1c0.4-0.2,0.8-0.4,1.2-0.6
			c-0.3-0.2-0.6-0.3-0.8-0.5l1.2-1c0.3,0.1,0.6,0.3,1,0.5c0.2-0.2,0.4-0.4,0.6-0.6l1.6,0.5c-0.2,0.3-0.5,0.6-0.8,1
			C241.8,15.8,242.1,16,242.3,16.2z M235.8,20.1l0,0.4h2.7c-0.2-0.2-0.5-0.6-0.8-0.8v0.4H235.8z M234.6,22.4v2.1h-2.5v-3.9h1.3
			l-0.3-5.4c1.1-0.2,2.7-0.7,3.7-1.1l1,1.5c-0.7,0.3-1.5,0.5-2.3,0.7l0,0.3h2.1v1.6h-2.1l0,0.4h2v0.7c0.3-0.1,0.7-0.3,1-0.5
			c-0.3-0.2-0.6-0.4-0.9-0.5l1.2-1c0.3,0.2,0.6,0.3,1,0.5c0.3-0.2,0.5-0.5,0.6-0.7l1.7,0.5c-0.3,0.4-0.6,0.7-0.9,1
			c0.4,0.3,0.7,0.5,1,0.8l-1.3,1.1c-0.2-0.2-0.6-0.5-0.9-0.8c-0.4,0.3-0.8,0.6-1.2,0.8h5.4l0.1-0.4h-1.9v-1.6h2l0-0.4h-1.9v-1.6h2
			l0-0.4h-2.2v-1.6h4.7c-0.1,1.9-0.2,4.2-0.4,6h1.3v3.9h-2.6v-2.1H234.6z M248.3,25.9V28h-6.7v0.8c0,1.1-0.2,1.7-1.1,2
			c-0.8,0.3-1.9,0.3-3.2,0.3c-0.1-0.7-0.5-1.6-0.8-2.2c0.7,0,1.9,0,2.1,0c0.3,0,0.4-0.1,0.4-0.3V28h-7.2v-2.1h7.2v-0.3
			c0.5-0.2,1-0.6,1.5-0.9h-5.1v-1.8h7.5l0.5-0.1l1.5,1.4c-0.8,0.6-1.8,1.2-2.9,1.8H248.3z M263.9,18.9h-4.1l1.8,0.8
			c-0.6,0.8-1.3,1.7-2,2.5l1-0.2c0.3,1,0.8,1.9,1.4,2.7c0.5-0.8,0.9-1.7,1.2-2.7l1.8,0.5c-0.6-0.9-1.5-1.8-2.3-2.6L263.9,18.9z
			 M267.6,21.8l-1.9,1.7c-0.1-0.1-0.1-0.2-0.2-0.3c-0.4,1.3-1,2.4-1.7,3.4c1.1,0.9,2.5,1.6,4.1,2.1c-0.6,0.5-1.4,1.6-1.7,2.4
			c-1.7-0.6-3-1.4-4.1-2.4c-1.2,1.1-2.6,1.9-4.3,2.5c-0.3-0.6-1.1-1.6-1.6-2.1c1.7-0.6,3.1-1.4,4.2-2.4c-0.7-1-1.2-2.2-1.7-3.4
			c-0.2,0.2-0.3,0.3-0.5,0.5c-0.4-0.5-1.2-1.2-1.7-1.6c0.5,0.8,1,1.6,1.1,1.9l-1.5,1.9c-0.2-0.6-0.5-1.4-0.8-2.1v7.4h-2.4v-6.4
			c-0.4,1.4-0.9,2.7-1.4,3.6c-0.2-0.7-0.8-1.9-1.2-2.6c1-1.4,1.8-3.7,2.2-5.8h-1.6v-2.4h2V14h2.4v3.4h1.7v2.4h-1.7v0.5
			c0.2,0.3,0.6,1,1.1,1.7c1-0.8,2.1-2,2.8-3.1h-1.8v-2.4h3.8c-0.3-0.6-0.6-1.3-1-1.8l2.4-0.8c0.5,0.7,1.1,1.6,1.3,2.3l-1.1,0.4h4.7
			v2.4H265C266,19.8,267.1,21,267.6,21.8z"/>
	</g>
</g>
</svg>
