<?xml version="1.0" encoding="utf-8"?>
<!-- Generator: Adobe Illustrator 24.3.0, SVG Export Plug-In . SVG Version: 6.00 Build 0)  -->
<svg version="1.0" id="圖層_1" xmlns="http://www.w3.org/2000/svg" xmlns:xlink="http://www.w3.org/1999/xlink" x="0px" y="0px"
	 viewBox="0 0 841.9 595.3" style="enable-background:new 0 0 841.9 595.3;" xml:space="preserve">
<style type="text/css">
	.st0{fill:#FFFFFF;}
	.st1{fill:url(#SVGID_1_);}
	.st2{fill:url(#SVGID_2_);}
	.st3{fill:url(#SVGID_3_);}
	.st4{fill:url(#SVGID_4_);}
	.st5{fill:url(#SVGID_5_);}
	.st6{fill:url(#SVGID_6_);}
	.st7{fill:url(#SVGID_7_);}
	.st8{fill:url(#SVGID_8_);}
	.st9{fill:url(#SVGID_9_);}
	.st10{fill:url(#SVGID_10_);}
	.st11{fill:url(#SVGID_11_);}
</style>
<g>
	<g>
		<g>
			<path class="st0" d="M414.2,302c-1.4-3.5-2.2-5.4-2.2-5.6h25.1c-0.2,0.3-0.3,0.7-0.4,1.1c-0.8,1.5-1.4,3-2,4.5H414.2z M438,259.6
				v4h-11V231h-6.5v32.5h-10.3v-4h6.9v-5.2h-6.9v-4.4h6.6v-5.2h-6.6v-4.1h6.6v-5.2h-6.6V231h-5.9v4.4h-7.4v5.2h7.4v4.1h-7.1v5.2h7.1
				v4.4h-7.4v5.2h7.4v4h-9c-0.7,0-1-0.3-1-1v-30.5h-6.5v34.5c0,1.9,0.9,2.9,2.8,2.9h67.3c1.9,0,2.9-1,2.9-2.9v-34.5h-6.5v30.5
				c0,0.8-0.3,1-1.1,1h-9.2v-4h7.3v-5.2h-7.3v-4.1h6.9v-5.2h-6.9v-4.4h7.3v-5.2h-7.3V231H438v4.4h-7.8v5.2h7.8v4.4h-7.5v5.2h7.5v4.1
				h-7.5v5.2H438z M386.5,272.9v5.8h75.2v-5.8H386.5z M407.3,302h-21.8v6.5h77.2V302h-21c0,0,0.8-1.9,2.3-5.6h10.8
				c0.6,0,0.9-0.3,0.9-0.9v-13.4c0-0.6-0.3-0.8-0.9-0.8h-61.4c-0.6,0-0.8,0.3-0.8,0.8v13.4c0,0.6,0.3,0.9,0.8,0.9H405
				C405.6,297.6,406.4,299.4,407.3,302z M448.9,286.8c0.2,0,0.3,0.1,0.3,0.3v3.5c0,0.2-0.1,0.3-0.3,0.3h-49.4
				c-0.3-0.1-0.3-0.2-0.3-0.3v-3.5c-0.1-0.2,0-0.3,0.3-0.3H448.9z"/>
			<path class="st0" d="M492,259.4l-4-6.9c19.3-6.5,32-13.8,37.8-21.9l6.9,1.4c-0.3,0.4-0.7,0.9-1,1.4c9.9,8.3,21.6,14.6,35,19
				l-4.2,6.8c-13.1-5.4-24.7-12.4-34.8-20.7C520.8,245.3,508.9,252.3,492,259.4z M503,279.9c3.1,4.1,6.2,9.3,9.2,15.8l-6.4,3.5
				c-3.2-6.7-6.3-11.9-9-15.5L503,279.9z M557.1,284c-3.6,6-7.1,11.2-10.1,15.2l-5.5-4.4c3.6-4.7,6.9-9.8,9.7-14.9L557.1,284z
				 M523.9,279h-32.9v-7.2h32.9v-10h-19.4v-7.2h46v7.2H531v10h32.8v7.2H531v20.9h33.4v7.2h-74.2v-7.2h33.6V279z"/>
			<path class="st0" d="M598,253.6h-8.5v-7.2h8.5V231h7.2v15.3h6.9v7.2h-6.9V267c1.5-1.2,2.8-2.3,3.9-3.4l4.8,4.9
				c-1,0.9-4,3.2-8.7,6.8v25.9c0,3.1-1.4,5.6-3.8,7.3c-1.9,1.3-6,1-12.2-0.9l0.4-7.5c2.7,1.2,4.8,1.9,6.2,2c0.6,0.1,1,0,1.4-0.4
				c0.5-0.4,0.8-1.3,0.8-2.5V280c-1.7,1-3.4,1.9-5.1,3l-4.4-5.4c3.8-2,6.9-3.8,9.5-5.5V253.6z M636.3,231h7.2v6.8H662l5.9,3
				c-0.3,4.6-1.5,9.9-3.6,16.2l-6.8-2.3c1.6-4.9,2.5-8,2.7-9.3c0-0.7-0.3-1-0.8-1h-37c-0.4,0-0.7,0.3-0.7,0.7v9.7h-7.2v-15.7
				c0-0.8,0.4-1.3,1.4-1.3h20.5V231z M628.8,258.1c-3,9.2-7.1,16.5-11.9,21.6l-6.2-3.6c5.5-5.8,9.4-12.5,11.5-19.9L628.8,258.1z
				 M652.6,251.2c0.8-0.1,1.4,0.4,1.5,1.4c1,4.8,2.5,9,4.4,12.3c1.8,3.1,4.9,6.4,9.2,10l-6,4c-3.8-3.6-6.3-6.7-7.8-9.1
				c-1.7-3.3-3.2-6.9-4.3-10.8c-0.1-0.6-0.3-0.9-0.8-0.9h-18v-6.9H652.6z M636.3,280.9h-14V274h34.5v6.9h-13.2v18.9h23.2v6.9h-53.3
				v-6.9h22.9V280.9z"/>
			<path class="st0" d="M291.4,238.1c4.4,4.8,9,11.2,13.5,19.2l-6.1,4c-4.9-8.3-9.3-14.6-13.2-19L291.4,238.1z M308.9,231.6h7.2
				v38.5c-0.2,10.6-2.1,19-5.7,25.1c-2.3,3.6-4.9,6.3-8,8.3c-3.4,2.3-8.3,4-14.5,5.4l-4.5-6.9c4.6-0.4,9-1.7,13.2-3.6
				c7.6-4.1,11.6-12.5,12.1-25.1c-5.8,4.4-12.8,9.1-20.9,13.8l-3.8-6.9c10.5-5.8,18.9-10.9,24.9-15.7V231.6z M358.4,240.1
				c-3.9,6-9.5,12.7-16.7,19.7l-5.5-4.9c7.5-7.5,13-14,16.6-19.4L358.4,240.1z M340.9,264.1c6,3.6,12.6,8.8,19.7,15.7l-4.7,5.5
				c-7.6-7-14.1-12.1-19.5-15.3L340.9,264.1z M333.6,231.6v64.9c0,1.2,0.4,2.2,1.2,3c0.8,0.8,1.8,1.1,2.9,1.2h12.3
				c0.7,0,1.4-0.3,2.1-0.8c0.4-0.3,0.9-3.8,1.3-10.6l7.1,1.3c-0.7,8.9-1.4,13.8-2.3,14.5c-1.7,1.9-3.5,2.9-5.1,2.9h-19.5
				c-1.7-0.1-3.5-0.9-5.1-2.5c-1.4-1.5-2.1-3-2.1-4.8v-68.9H333.6z"/>
		</g>
		<g>
			<path class="st0" d="M288.8,335h9.1l12.7,36.6h0.1l12.7-36.6h9.1v44.7h-5.8v-37.1h-0.1l-12.8,37.1h-6.2l-12.8-37.1h-0.1v37.1
				h-5.8V335z"/>
			<path class="st0" d="M345.8,358.1c0-1.4,1.4-5.4,6.2-5.4c4.5,0,5.6,3.5,5.6,5.4H345.8z M362.7,374.8c-1.4,0.5-3.2,1.1-5.8,1.1
				c-8.4,0-11.3-8.1-11.3-13.9h17.9v-1.5c0-7.3-3.6-12.4-11.1-12.4c-4,0-12.6,1.4-12.6,14.6c0,12.1,6,17.6,15.3,17.6
				c3.4,0,5.2-0.5,7.7-1V374.8z"/>
			<path class="st0" d="M375.8,364.2c0-4.7,0.9-11.5,6-11.5c5.1,0,6.7,6.2,6.7,10.9c0,4.9-1.8,11.6-6.8,11.6
				C376.6,375.2,375.8,368.2,375.8,364.2z M394.4,348.9h-5.8v4.3h-0.1c-0.6-1.6-3.2-5-8.1-5c-7.8,0-11,7.4-11,16.1
				c0,7.9,2.5,15.4,10.6,15.4c5.3,0,7.9-3.6,8.5-5.2h0.1v4.8c0,3.5,0,9.8-9,9.8c-3.8,0-7-1.6-8.9-2.5v5.9c1.4,0.3,4.7,1.1,9.5,1.1
				c9.2,0,14.3-3.7,14.3-12.6V348.9z"/>
			<path class="st0" d="M417.9,365.9v1.8c0,3.6-3,8.2-7,8.2c-1.7,0-3.4-1.6-3.4-4c0-4,4.6-6,9.2-6H417.9z M417.9,379.7h5.8v-21.2
				c0-2.8,0-10.4-10.1-10.4c-8.6,0-11.5,4.3-11.5,9.3h6.2c0-2.5,1.4-4.7,4.9-4.7c2.2,0,4.2,1,4.7,4v5.4c-7.8,0-16.9,1.9-16.9,10.1
				c0,4.8,3,8.3,8.8,8.3c4.7,0,7.2-2.9,8-4.5h0.1V379.7z"/>
			<path class="st0" d="M447,335h6.5v18.9h17.6V335h6.5v44.7h-6.5V359h-17.6v20.7H447V335z"/>
			<path class="st0" d="M491.7,364.3c0-5,0.8-11.6,7.2-11.6c6.3,0,7.1,6.6,7.1,11.6c0,4.9-0.8,11.6-7.1,11.6
				C492.5,375.9,491.7,369.2,491.7,364.3z M498.9,380.4c9.3,0,13.6-6.4,13.6-16.1c0-9.9-4.3-16.1-13.6-16.1
				c-9.3,0-13.7,6.3-13.7,16.1C485.3,374,489.6,380.4,498.9,380.4z"/>
			<path class="st0" d="M520.5,335h5.8v44.7h-5.8V335z"/>
			<path class="st0" d="M540.9,364.3c0-6.5,1.5-11.6,6-11.6c5.2,0,6.7,6.2,6.7,11.5c0,5.1-1.9,11.7-6.7,11.7
				C541.6,375.9,540.9,368.9,540.9,364.3z M553.7,379.7h5.8V335h-5.8v18.1h-0.1c-0.7-1.8-3.1-5-8.2-5c-7,0-10.9,6.4-10.9,16.7
				c0,8.8,3,15.6,10.6,15.6c5.4,0,7.9-3.7,8.6-5.4h0.1V379.7z"/>
			<path class="st0" d="M568.8,348.9h5.8v30.9h-5.8V348.9z M568.3,335h7v6.6h-7V335z"/>
			<path class="st0" d="M584.1,348.9h5.8v6.6h0.1c1-2.6,3.5-7.3,9.8-7.3c7.1,0,8.3,6.4,8.3,10.2v21.4h-5.8v-16.9
				c0-5.7,0-8.9-4.2-8.9c-4.8,0-8.2,6.5-8.2,12.6v13.1h-5.8V348.9z"/>
			<path class="st0" d="M622,364.2c0-4.7,0.9-11.5,6-11.5c5.1,0,6.7,6.2,6.7,10.9c0,4.9-1.8,11.6-6.8,11.6
				C622.8,375.2,622,368.2,622,364.2z M640.6,348.9h-5.8v4.3h-0.1c-0.6-1.6-3.2-5-8.1-5c-7.8,0-11,7.4-11,16.1
				c0,7.9,2.5,15.4,10.6,15.4c5.3,0,7.9-3.6,8.5-5.2h0.1v4.8c0,3.5,0,9.8-9,9.8c-3.8,0-7-1.6-8.9-2.5v5.9c1.4,0.3,4.7,1.1,9.5,1.1
				c9.2,0,14.3-3.7,14.3-12.6V348.9z"/>
			<path class="st0" d="M660.5,362c3.2,2,7.1,4,7.1,9.1c0,6.5-4.7,9.3-11.6,9.3c-4.2,0-6.9-0.8-8.3-1.2v-5.1
				c0.6,0.3,4.5,1.8,7.8,1.8c2.8,0,6.3-0.8,6.3-4c0-2.3-2.9-3.6-4.9-5l-3-1.8c-2.8-1.8-6.2-3.8-6.2-8.4c0-5.6,4.5-8.6,11-8.6
				c3.1,0,5.5,0.8,7,1.1v5.3c-0.8-0.4-3.7-1.8-7.1-1.8c-2.5,0-5.1,1.4-5.1,3.3c0,2.1,2.5,3.3,4.5,4.5L660.5,362z"/>
		</g>
	</g>
	<g>
		<radialGradient id="SVGID_1_" cx="172.2189" cy="270.0653" r="80.1255" gradientUnits="userSpaceOnUse">
			<stop  offset="0.521" style="stop-color:#FFFFFF"/>
			<stop  offset="0.8495" style="stop-color:#FFFFFF"/>
			<stop  offset="0.9317" style="stop-color:#FFFFFF;stop-opacity:0.6"/>
			<stop  offset="1" style="stop-color:#FFFFFF;stop-opacity:0"/>
		</radialGradient>
		<circle class="st1" cx="172.2" cy="270.1" r="80.1"/>
		<circle class="st0" cx="172.2" cy="270.1" r="69.8"/>
		<g>
			
				<linearGradient id="SVGID_2_" gradientUnits="userSpaceOnUse" x1="-795.3893" y1="3160.0586" x2="-795.3893" y2="3160.0586" gradientTransform="matrix(7.760000e-02 0 0 -5.160000e-02 233.9447 433.1323)">
				<stop  offset="0" style="stop-color:#FFFFFF"/>
				<stop  offset="1" style="stop-color:#AB1724"/>
			</linearGradient>
			<polygon class="st2" points="172.2,270.1 172.2,270.1 172.2,270.1 			"/>
			
				<linearGradient id="SVGID_3_" gradientUnits="userSpaceOnUse" x1="-140.5652" y1="-1588.7561" x2="-1952.3104" y2="-1588.7561" gradientTransform="matrix(6.050000e-02 0 0 6.050000e-02 233.1914 401.0846)">
				<stop  offset="0" style="stop-color:#FFFFFF"/>
				<stop  offset="0.1917" style="stop-color:#D9C7A0"/>
				<stop  offset="0.4127" style="stop-color:#B5903B"/>
				<stop  offset="0.5112" style="stop-color:#A97E23"/>
				<stop  offset="0.6285" style="stop-color:#A67A24"/>
				<stop  offset="0.7557" style="stop-color:#9D6E27"/>
				<stop  offset="0.8871" style="stop-color:#875C2C"/>
				<stop  offset="1" style="stop-color:#6E4A2F"/>
			</linearGradient>
			<path class="st3" d="M223.2,301.8c-12.7,9.1-30.8,14.8-51,14.8c-20.1,0-38.2-5.6-51-14.8c-11.7-8.3-18.8-19.5-18.8-31.8
				c0,26,14.2,48.7,35.4,60.7c9.7,5.5,20.7,8.7,32.5,9c0,0,0.1,0,0.2,0c0.6,0,1.1,0,1.7,0l0,0l0,0c0.6,0,1.1,0,1.7,0
				c0,0,0.1,0,0.1,0c11.8-0.3,22.9-3.6,32.5-9c10.3-6.4,16.8-15.6,16.8-25.8C223.4,303.9,223.3,302.9,223.2,301.8z"/>
			
				<linearGradient id="SVGID_4_" gradientUnits="userSpaceOnUse" x1="-1203.4672" y1="-1214.2059" x2="-1937.7462" y2="-2944.0591" gradientTransform="matrix(6.050000e-02 0 0 6.050000e-02 233.1914 401.0846)">
				<stop  offset="0" style="stop-color:#FFFFFF"/>
				<stop  offset="7.562567e-02" style="stop-color:#ECE3D0"/>
				<stop  offset="0.1975" style="stop-color:#D3BF8E"/>
				<stop  offset="0.307" style="stop-color:#C0A057"/>
				<stop  offset="0.4" style="stop-color:#B38C33"/>
				<stop  offset="0.473" style="stop-color:#AC8226"/>
				<stop  offset="0.5169" style="stop-color:#A97E23"/>
				<stop  offset="0.7846" style="stop-color:#885D2C"/>
				<stop  offset="1" style="stop-color:#6E4A2F"/>
			</linearGradient>
			<path class="st4" d="M121.2,238.3c-0.1-1-0.2-2.1-0.2-3.1c0-10.3,6.5-19.5,16.8-25.9c-21.1,12-35.4,34.7-35.4,60.7
				c0,12.3,7.1,23.4,18.8,31.8c12.7,9.1,30.9,14.8,51,14.8v-46.5C145.5,270.1,123.6,256.1,121.2,238.3z"/>
			<g>
				
					<linearGradient id="SVGID_5_" gradientUnits="userSpaceOnUse" x1="2698.7249" y1="3310.0142" x2="887.0336" y2="3310.0142" gradientTransform="matrix(-6.050000e-02 0 0 -6.050000e-02 282.9638 435.4296)">
					<stop  offset="0" style="stop-color:#FFFFFF"/>
					<stop  offset="0.1917" style="stop-color:#D9C7A0"/>
					<stop  offset="0.4127" style="stop-color:#B5903B"/>
					<stop  offset="0.5112" style="stop-color:#A97E23"/>
					<stop  offset="0.6285" style="stop-color:#A67A24"/>
					<stop  offset="0.7557" style="stop-color:#9D6E27"/>
					<stop  offset="0.8871" style="stop-color:#875C2C"/>
					<stop  offset="1" style="stop-color:#6E4A2F"/>
				</linearGradient>
				<path class="st5" d="M121.2,238.3c12.7-9.1,30.9-14.7,51-14.7c20.1,0,38.2,5.7,51,14.7c11.7,8.3,18.8,19.5,18.8,31.8
					c0-26.1-14.3-48.8-35.4-60.7c-9.6-5.5-20.7-8.7-32.5-9c0,0-0.1,0-0.1,0c-0.6,0-1.2,0-1.7,0l0,0l0,0c-0.6,0-1.2,0-1.7,0
					c-0.1,0-0.1,0-0.2,0c-11.8,0.3-22.9,3.5-32.5,9c-10.3,6.4-16.8,15.6-16.8,25.9C121,236.2,121.1,237.3,121.2,238.3z"/>
				
					<linearGradient id="SVGID_6_" gradientUnits="userSpaceOnUse" x1="1634.9824" y1="3685.0669" x2="900.7859" y2="1955.4083" gradientTransform="matrix(-6.050000e-02 0 0 -6.050000e-02 282.9638 435.4296)">
					<stop  offset="0" style="stop-color:#FFFFFF"/>
					<stop  offset="7.562567e-02" style="stop-color:#ECE3D0"/>
					<stop  offset="0.1975" style="stop-color:#D3BF8E"/>
					<stop  offset="0.307" style="stop-color:#C0A057"/>
					<stop  offset="0.4" style="stop-color:#B38C33"/>
					<stop  offset="0.473" style="stop-color:#AC8226"/>
					<stop  offset="0.5169" style="stop-color:#A97E23"/>
					<stop  offset="0.7846" style="stop-color:#885D2C"/>
					<stop  offset="1" style="stop-color:#6E4A2F"/>
				</linearGradient>
				<path class="st6" d="M223.2,301.8c0.1,1,0.2,2.1,0.2,3.1c0,10.2-6.5,19.5-16.8,25.8c21.1-12,35.4-34.7,35.4-60.7
					c0-12.3-7.1-23.5-18.8-31.8c-12.7-9.1-30.8-14.7-51-14.7v46.5C198.9,270.1,220.9,284,223.2,301.8z"/>
			</g>
		</g>
		<circle class="st0" cx="172.2" cy="270.1" r="70.6"/>
		<g>
			<g>
				<path class="st0" d="M102.6,270.1c0-38.5,31.2-69.8,69.8-69.8c38.5,0,69.8,31.2,69.8,69.8c0,38.5-31.2,69.8-69.8,69.8
					C133.8,339.8,102.6,308.6,102.6,270.1z"/>
			</g>
			
				<linearGradient id="SVGID_7_" gradientUnits="userSpaceOnUse" x1="-4603.8335" y1="25438.5195" x2="-4603.8335" y2="25438.5195" gradientTransform="matrix(-7.760000e-02 0 0 5.160000e-02 -185.1722 -1042.5557)">
				<stop  offset="0" style="stop-color:#FFFFFF"/>
				<stop  offset="1" style="stop-color:#992418"/>
			</linearGradient>
			<polygon class="st7" points="172.1,270.1 172.1,270.1 172.1,270.1 			"/>
			
				<linearGradient id="SVGID_8_" gradientUnits="userSpaceOnUse" x1="-5026.064" y1="-20590.1035" x2="-6836.6431" y2="-20590.1035" gradientTransform="matrix(-6.050000e-02 0 0 -6.050000e-02 -184.4204 -1010.5089)">
				<stop  offset="0" style="stop-color:#FFFFFF"/>
				<stop  offset="0.1673" style="stop-color:#DECDAB"/>
				<stop  offset="0.4053" style="stop-color:#B79342"/>
				<stop  offset="0.5112" style="stop-color:#A87F1C"/>
				<stop  offset="0.6259" style="stop-color:#A47B1C"/>
				<stop  offset="0.7503" style="stop-color:#9B701B"/>
				<stop  offset="0.8788" style="stop-color:#895E19"/>
				<stop  offset="1" style="stop-color:#774916"/>
			</linearGradient>
			<path class="st8" d="M121.2,238.3c12.7-9.1,30.8-14.7,50.9-14.7c20.1,0,38.2,5.6,50.9,14.7c11.7,8.3,18.8,19.5,18.8,31.8
				c0-26-14.2-48.7-35.4-60.7c-9.7-5.4-20.7-8.7-32.5-9c0,0-0.1,0-0.2,0c-0.6,0-1.1,0-1.7,0l0,0l0,0c-0.6,0-1.1,0-1.7,0
				c0,0-0.1,0-0.1,0c-11.8,0.3-22.9,3.6-32.5,9c-10.3,6.4-16.8,15.6-16.8,25.8C121,236.2,121,237.3,121.2,238.3z"/>
			
				<linearGradient id="SVGID_9_" gradientUnits="userSpaceOnUse" x1="-6088.2139" y1="-20215.8262" x2="-6822.0493" y2="-21944.6328" gradientTransform="matrix(-6.050000e-02 0 0 -6.050000e-02 -184.4204 -1010.5089)">
				<stop  offset="0" style="stop-color:#FFFFFF"/>
				<stop  offset="4.907049e-02" style="stop-color:#F2EBDE"/>
				<stop  offset="0.1783" style="stop-color:#D6C198"/>
				<stop  offset="0.2944" style="stop-color:#C2A460"/>
				<stop  offset="0.393" style="stop-color:#B48E39"/>
				<stop  offset="0.4703" style="stop-color:#AB8323"/>
				<stop  offset="0.5169" style="stop-color:#A87F1C"/>
				<stop  offset="0.7926" style="stop-color:#885D19"/>
				<stop  offset="1" style="stop-color:#774916"/>
			</linearGradient>
			<path class="st9" d="M223,301.8c0.1,1,0.2,2.1,0.2,3.1c0,10.3-6.5,19.5-16.8,25.9c21.1-12,35.4-34.7,35.4-60.7
				c0-12.3-7.1-23.4-18.8-31.8c-12.7-9.1-30.8-14.7-50.9-14.7v46.5C198.8,270.1,220.7,284,223,301.8z"/>
			
				<linearGradient id="SVGID_10_" gradientUnits="userSpaceOnUse" x1="7583.1279" y1="22310.7227" x2="5772.4902" y2="22310.7227" gradientTransform="matrix(6.050000e-02 0 0 6.050000e-02 -234.1928 -1044.8539)">
				<stop  offset="0" style="stop-color:#FFFFFF"/>
				<stop  offset="0.1673" style="stop-color:#DECDAB"/>
				<stop  offset="0.4053" style="stop-color:#B79342"/>
				<stop  offset="0.5112" style="stop-color:#A87F1C"/>
				<stop  offset="0.6259" style="stop-color:#A47B1C"/>
				<stop  offset="0.7503" style="stop-color:#9B701B"/>
				<stop  offset="0.8788" style="stop-color:#895E19"/>
				<stop  offset="1" style="stop-color:#774916"/>
			</linearGradient>
			<path class="st10" d="M223,301.8c-12.7,9.1-30.8,14.7-50.9,14.7c-20.1,0-38.2-5.7-50.9-14.7c-11.7-8.3-18.8-19.5-18.8-31.8
				c0,26,14.2,48.7,35.4,60.7c9.6,5.5,20.7,8.7,32.5,9c0,0,0.1,0,0.1,0c0.6,0,1.2,0,1.7,0l0,0l0,0c0.6,0,1.2,0,1.7,0
				c0.1,0,0.1,0,0.2,0c11.8-0.3,22.8-3.5,32.5-9c10.3-6.4,16.8-15.6,16.8-25.9C223.2,303.9,223.2,302.8,223,301.8z"/>
			
				<linearGradient id="SVGID_11_" gradientUnits="userSpaceOnUse" x1="6519.9316" y1="22685.4473" x2="5786.1714" y2="20956.8164" gradientTransform="matrix(6.050000e-02 0 0 6.050000e-02 -234.1928 -1044.8539)">
				<stop  offset="0" style="stop-color:#FFFFFF"/>
				<stop  offset="4.907049e-02" style="stop-color:#F2EBDE"/>
				<stop  offset="0.1783" style="stop-color:#D6C198"/>
				<stop  offset="0.2944" style="stop-color:#C2A460"/>
				<stop  offset="0.393" style="stop-color:#B48E39"/>
				<stop  offset="0.4703" style="stop-color:#AB8323"/>
				<stop  offset="0.5169" style="stop-color:#A87F1C"/>
				<stop  offset="0.7926" style="stop-color:#885D19"/>
				<stop  offset="1" style="stop-color:#774916"/>
			</linearGradient>
			<path class="st11" d="M121.2,238.3c-0.1-1-0.2-2.1-0.2-3.1c0-10.2,6.5-19.5,16.8-25.8c-21.1,12-35.4,34.7-35.4,60.7
				c0,12.3,7.1,23.4,18.8,31.8c12.7,9.1,30.8,14.7,50.9,14.7v-46.5C145.4,270.1,123.5,256.1,121.2,238.3z"/>
		</g>
	</g>
</g>
</svg>
