<?xml version="1.0" encoding="utf-8"?>
<!-- Generator: Adobe Illustrator 24.3.0, SVG Export Plug-In . SVG Version: 6.00 Build 0)  -->
<svg version="1.0" id="圖層_1" xmlns="http://www.w3.org/2000/svg" xmlns:xlink="http://www.w3.org/1999/xlink" x="0px" y="0px"
	 viewBox="0 0 841.9 595.3" style="enable-background:new 0 0 841.9 595.3;" xml:space="preserve">
<style type="text/css">
	.st0{fill:#FFFFFF;}
	.st1{fill:url(#SVGID_1_);}
	.st2{fill:url(#SVGID_2_);}
	.st3{fill:url(#SVGID_3_);}
	.st4{fill:url(#SVGID_4_);}
	.st5{fill:url(#SVGID_5_);}
	.st6{fill:url(#SVGID_6_);}
	.st7{fill:url(#SVGID_7_);}
	.st8{fill:url(#SVGID_8_);}
	.st9{fill:url(#SVGID_9_);}
	.st10{fill:url(#SVGID_10_);}
	.st11{fill:url(#SVGID_11_);}
</style>
<g>
	<g>
		<g>
			<path class="st0" d="M414.2,298.9c-1.4-3.5-2.2-5.4-2.2-5.6h25.1c-0.2,0.3-0.3,0.7-0.4,1.1c-0.8,1.5-1.4,3-2,4.5H414.2z
				 M438,256.5v4h-11V228h-6.5v32.5h-10.3v-4h6.9v-5.2h-6.9v-4.4h6.6v-5.2h-6.6v-4.1h6.6v-5.2h-6.6V228h-5.9v4.4h-7.4v5.2h7.4v4.1
				h-7.1v5.2h7.1v4.4h-7.4v5.2h7.4v4h-9c-0.7,0-1-0.3-1-1V229h-6.5v34.5c0,1.9,0.9,2.9,2.8,2.9h67.3c1.9,0,2.9-1,2.9-2.9V229h-6.5
				v30.5c0,0.8-0.3,1-1.1,1h-9.2v-4h7.3v-5.2h-7.3v-4.1h6.9V242h-6.9v-4.4h7.3v-5.2h-7.3V228H438v4.4h-7.8v5.2h7.8v4.4h-7.5v5.2h7.5
				v4.1h-7.5v5.2H438z M386.5,269.8v5.8h75.2v-5.8H386.5z M407.3,298.9h-21.8v6.5h77.2v-6.5h-21c0,0,0.8-1.9,2.3-5.6h10.8
				c0.6,0,0.9-0.3,0.9-0.9V279c0-0.6-0.3-0.8-0.9-0.8h-61.4c-0.6,0-0.8,0.3-0.8,0.8v13.4c0,0.6,0.3,0.9,0.8,0.9H405
				C405.6,294.5,406.4,296.4,407.3,298.9z M448.9,283.8c0.2,0,0.3,0.1,0.3,0.3v3.5c0,0.2-0.1,0.3-0.3,0.3h-49.4
				c-0.3-0.1-0.3-0.2-0.3-0.3V284c-0.1-0.2,0-0.3,0.3-0.3H448.9z"/>
			<path class="st0" d="M492,256.3l-4-6.9c19.3-6.5,32-13.8,37.8-21.9l6.9,1.4c-0.3,0.4-0.7,0.9-1,1.4c9.9,8.3,21.6,14.6,35,19
				l-4.2,6.8c-13.1-5.4-24.7-12.4-34.8-20.7C520.8,242.3,508.9,249.2,492,256.3z M503,276.8c3.1,4.1,6.2,9.3,9.2,15.8l-6.4,3.5
				c-3.2-6.7-6.3-11.9-9-15.5L503,276.8z M557.1,281c-3.6,6-7.1,11.2-10.1,15.2l-5.5-4.4c3.6-4.7,6.9-9.8,9.7-14.9L557.1,281z
				 M523.9,276h-32.9v-7.2h32.9v-10h-19.4v-7.2h46v7.2H531v10h32.8v7.2H531v20.9h33.4v7.2h-74.2v-7.2h33.6V276z"/>
			<path class="st0" d="M598,250.5h-8.5v-7.2h8.5V228h7.2v15.3h6.9v7.2h-6.9V264c1.5-1.2,2.8-2.3,3.9-3.4l4.8,4.9
				c-1,0.9-4,3.2-8.7,6.8v25.9c0,3.1-1.4,5.6-3.8,7.3c-1.9,1.3-6,1-12.2-0.9l0.4-7.5c2.7,1.2,4.8,1.9,6.2,2c0.6,0.1,1,0,1.4-0.4
				c0.5-0.4,0.8-1.3,0.8-2.5V277c-1.7,1-3.4,1.9-5.1,3l-4.4-5.4c3.8-2,6.9-3.8,9.5-5.5V250.5z M636.3,228h7.2v6.8H662l5.9,3
				c-0.3,4.6-1.5,9.9-3.6,16.2l-6.8-2.3c1.6-4.9,2.5-8,2.7-9.3c0-0.7-0.3-1-0.8-1h-37c-0.4,0-0.7,0.3-0.7,0.7v9.7h-7.2V236
				c0-0.8,0.4-1.3,1.4-1.3h20.5V228z M628.8,255.1c-3,9.2-7.1,16.5-11.9,21.6l-6.2-3.6c5.5-5.8,9.4-12.5,11.5-19.9L628.8,255.1z
				 M652.6,248.1c0.8-0.1,1.4,0.4,1.5,1.4c1,4.8,2.5,9,4.4,12.3c1.8,3.1,4.9,6.4,9.2,10l-6,4c-3.8-3.6-6.3-6.7-7.8-9.1
				c-1.7-3.3-3.2-6.9-4.3-10.8c-0.1-0.6-0.3-0.9-0.8-0.9h-18v-6.9H652.6z M636.3,277.8h-14V271h34.5v6.9h-13.2v18.9h23.2v6.9h-53.3
				v-6.9h22.9V277.8z"/>
			<path class="st0" d="M291.4,235.1c4.4,4.8,9,11.2,13.5,19.2l-6.1,4c-4.9-8.3-9.3-14.6-13.2-19L291.4,235.1z M308.9,228.6h7.2
				v38.5c-0.2,10.6-2.1,19-5.7,25.1c-2.3,3.6-4.9,6.3-8,8.3c-3.4,2.3-8.3,4-14.5,5.4l-4.5-6.9c4.6-0.4,9-1.7,13.2-3.6
				c7.6-4.1,11.6-12.5,12.1-25.1c-5.8,4.4-12.8,9.1-20.9,13.8l-3.8-6.9c10.5-5.8,18.9-10.9,24.9-15.7V228.6z M358.4,237
				c-3.9,6-9.5,12.7-16.7,19.7l-5.5-4.9c7.5-7.5,13-14,16.6-19.4L358.4,237z M340.9,261c6,3.6,12.6,8.8,19.7,15.7l-4.7,5.5
				c-7.6-7-14.1-12.1-19.5-15.3L340.9,261z M333.6,228.6v64.9c0,1.2,0.4,2.2,1.2,3c0.8,0.8,1.8,1.1,2.9,1.2h12.3
				c0.7,0,1.4-0.3,2.1-0.8c0.4-0.3,0.9-3.8,1.3-10.6l7.1,1.3c-0.7,8.9-1.4,13.8-2.3,14.5c-1.7,1.9-3.5,2.9-5.1,2.9h-19.5
				c-1.7-0.1-3.5-0.9-5.1-2.5c-1.4-1.5-2.1-3-2.1-4.8v-68.9H333.6z"/>
		</g>
		<g>
			<path class="st0" d="M288.8,331.9h9.1l12.7,36.6h0.1l12.7-36.6h9.1v44.7h-5.8v-37.1h-0.1l-12.8,37.1h-6.2l-12.8-37.1h-0.1v37.1
				h-5.8V331.9z"/>
			<path class="st0" d="M345.8,355.1c0-1.4,1.4-5.4,6.2-5.4c4.5,0,5.6,3.5,5.6,5.4H345.8z M362.7,371.7c-1.4,0.5-3.2,1.1-5.8,1.1
				c-8.4,0-11.3-8.1-11.3-13.9h17.9v-1.5c0-7.3-3.6-12.4-11.1-12.4c-4,0-12.6,1.4-12.6,14.6c0,12.1,6,17.6,15.3,17.6
				c3.4,0,5.2-0.5,7.7-1V371.7z"/>
			<path class="st0" d="M375.8,361.1c0-4.7,0.9-11.5,6-11.5c5.1,0,6.7,6.2,6.7,10.9c0,4.9-1.8,11.6-6.8,11.6
				C376.6,372.1,375.8,365.2,375.8,361.1z M394.4,345.8h-5.8v4.3h-0.1c-0.6-1.6-3.2-5-8.1-5c-7.8,0-11,7.4-11,16.1
				c0,7.9,2.5,15.4,10.6,15.4c5.3,0,7.9-3.6,8.5-5.2h0.1v4.8c0,3.5,0,9.8-9,9.8c-3.8,0-7-1.6-8.9-2.5v5.9c1.4,0.3,4.7,1.1,9.5,1.1
				c9.2,0,14.3-3.7,14.3-12.6V345.8z"/>
			<path class="st0" d="M417.9,362.8v1.8c0,3.6-3,8.2-7,8.2c-1.7,0-3.4-1.6-3.4-4c0-4,4.6-6,9.2-6H417.9z M417.9,376.6h5.8v-21.2
				c0-2.8,0-10.4-10.1-10.4c-8.6,0-11.5,4.3-11.5,9.3h6.2c0-2.5,1.4-4.7,4.9-4.7c2.2,0,4.2,1,4.7,4v5.4c-7.8,0-16.9,1.9-16.9,10.1
				c0,4.8,3,8.3,8.8,8.3c4.7,0,7.2-2.9,8-4.5h0.1V376.6z"/>
			<path class="st0" d="M447,331.9h6.5v18.9h17.6v-18.9h6.5v44.7h-6.5V356h-17.6v20.7H447V331.9z"/>
			<path class="st0" d="M491.7,361.2c0-5,0.8-11.6,7.2-11.6c6.3,0,7.1,6.6,7.1,11.6c0,4.9-0.8,11.6-7.1,11.6
				C492.5,372.8,491.7,366.1,491.7,361.2z M498.9,377.4c9.3,0,13.6-6.4,13.6-16.1c0-9.9-4.3-16.1-13.6-16.1
				c-9.3,0-13.7,6.3-13.7,16.1C485.3,370.9,489.6,377.4,498.9,377.4z"/>
			<path class="st0" d="M520.5,331.9h5.8v44.7h-5.8V331.9z"/>
			<path class="st0" d="M540.9,361.2c0-6.5,1.5-11.6,6-11.6c5.2,0,6.7,6.2,6.7,11.5c0,5.1-1.9,11.7-6.7,11.7
				C541.6,372.8,540.9,365.9,540.9,361.2z M553.7,376.6h5.8v-44.7h-5.8v18.1h-0.1c-0.7-1.8-3.1-5-8.2-5c-7,0-10.9,6.4-10.9,16.7
				c0,8.8,3,15.6,10.6,15.6c5.4,0,7.9-3.7,8.6-5.4h0.1V376.6z"/>
			<path class="st0" d="M568.8,345.8h5.8v30.9h-5.8V345.8z M568.3,331.9h7v6.6h-7V331.9z"/>
			<path class="st0" d="M584.1,345.8h5.8v6.6h0.1c1-2.6,3.5-7.3,9.8-7.3c7.1,0,8.3,6.4,8.3,10.2v21.4h-5.8v-16.9
				c0-5.7,0-8.9-4.2-8.9c-4.8,0-8.2,6.5-8.2,12.6v13.1h-5.8V345.8z"/>
			<path class="st0" d="M622,361.1c0-4.7,0.9-11.5,6-11.5c5.1,0,6.7,6.2,6.7,10.9c0,4.9-1.8,11.6-6.8,11.6
				C622.8,372.1,622,365.2,622,361.1z M640.6,345.8h-5.8v4.3h-0.1c-0.6-1.6-3.2-5-8.1-5c-7.8,0-11,7.4-11,16.1
				c0,7.9,2.5,15.4,10.6,15.4c5.3,0,7.9-3.6,8.5-5.2h0.1v4.8c0,3.5,0,9.8-9,9.8c-3.8,0-7-1.6-8.9-2.5v5.9c1.4,0.3,4.7,1.1,9.5,1.1
				c9.2,0,14.3-3.7,14.3-12.6V345.8z"/>
			<path class="st0" d="M660.5,358.9c3.2,2,7.1,4,7.1,9.1c0,6.5-4.7,9.3-11.6,9.3c-4.2,0-6.9-0.8-8.3-1.2V371
				c0.6,0.3,4.5,1.8,7.8,1.8c2.8,0,6.3-0.8,6.3-4c0-2.3-2.9-3.6-4.9-5l-3-1.8c-2.8-1.8-6.2-3.8-6.2-8.4c0-5.6,4.5-8.6,11-8.6
				c3.1,0,5.5,0.8,7,1.1v5.3c-0.8-0.4-3.7-1.8-7.1-1.8c-2.5,0-5.1,1.4-5.1,3.3c0,2.1,2.5,3.3,4.5,4.5L660.5,358.9z"/>
		</g>
	</g>
	<g>
		<radialGradient id="SVGID_1_" cx="156.2176" cy="300.0297" r="96.1267" gradientUnits="userSpaceOnUse">
			<stop  offset="0.521" style="stop-color:#FFFFFF"/>
			<stop  offset="0.8495" style="stop-color:#FFFFFF"/>
			<stop  offset="0.9317" style="stop-color:#FFFFFF;stop-opacity:0.6"/>
			<stop  offset="1" style="stop-color:#FFFFFF;stop-opacity:0"/>
		</radialGradient>
		<circle class="st1" cx="156.2" cy="300" r="96.1"/>
		<circle class="st0" cx="156.2" cy="300" r="83.7"/>
		<g>
			
				<linearGradient id="SVGID_2_" gradientUnits="userSpaceOnUse" x1="-1001.5819" y1="2579.3237" x2="-1001.5819" y2="2579.3237" gradientTransform="matrix(7.760000e-02 0 0 -5.160000e-02 233.9447 433.1323)">
				<stop  offset="0" style="stop-color:#FFFFFF"/>
				<stop  offset="1" style="stop-color:#AB1724"/>
			</linearGradient>
			<polygon class="st2" points="156.2,300 156.2,300 156.2,300 			"/>
			
				<linearGradient id="SVGID_3_" gradientUnits="userSpaceOnUse" x1="-231.8578" y1="-978.279" x2="-2405.4133" y2="-978.279" gradientTransform="matrix(6.050000e-02 0 0 6.050000e-02 233.1914 401.0846)">
				<stop  offset="0" style="stop-color:#FFFFFF"/>
				<stop  offset="0.1917" style="stop-color:#D9C7A0"/>
				<stop  offset="0.4127" style="stop-color:#B5903B"/>
				<stop  offset="0.5112" style="stop-color:#A97E23"/>
				<stop  offset="0.6285" style="stop-color:#A67A24"/>
				<stop  offset="0.7557" style="stop-color:#9D6E27"/>
				<stop  offset="0.8871" style="stop-color:#875C2C"/>
				<stop  offset="1" style="stop-color:#6E4A2F"/>
			</linearGradient>
			<path class="st3" d="M217.3,338.1c-15.3,10.9-37,17.7-61.1,17.7c-24.1,0-45.9-6.8-61.2-17.7c-14-10-22.6-23.4-22.6-38.1
				c0,31.2,17.1,58.5,42.5,72.9c11.6,6.5,24.8,10.5,39,10.8c0.1,0,0.1,0,0.2,0c0.7,0,1.4,0,2.1,0l0,0l0,0c0.7,0,1.4,0,2.1,0
				c0,0,0.1,0,0.2,0c14.2-0.4,27.4-4.3,39-10.8c12.4-7.7,20.1-18.7,20.1-31C217.6,340.6,217.5,339.4,217.3,338.1z"/>
			
				<linearGradient id="SVGID_4_" gradientUnits="userSpaceOnUse" x1="-1507.024" y1="-528.9303" x2="-2387.9407" y2="-2604.2395" gradientTransform="matrix(6.050000e-02 0 0 6.050000e-02 233.1914 401.0846)">
				<stop  offset="0" style="stop-color:#FFFFFF"/>
				<stop  offset="7.562567e-02" style="stop-color:#ECE3D0"/>
				<stop  offset="0.1975" style="stop-color:#D3BF8E"/>
				<stop  offset="0.307" style="stop-color:#C0A057"/>
				<stop  offset="0.4" style="stop-color:#B38C33"/>
				<stop  offset="0.473" style="stop-color:#AC8226"/>
				<stop  offset="0.5169" style="stop-color:#A97E23"/>
				<stop  offset="0.7846" style="stop-color:#885D2C"/>
				<stop  offset="1" style="stop-color:#6E4A2F"/>
			</linearGradient>
			<path class="st4" d="M95.1,261.9c-0.2-1.2-0.3-2.5-0.3-3.7c0-12.3,7.8-23.4,20.1-31c-25.4,14.4-42.5,41.6-42.5,72.9
				c0,14.7,8.6,28.1,22.6,38.1c15.3,10.9,37,17.7,61.2,17.7V300C124.2,300,97.8,283.3,95.1,261.9z"/>
			<g>
				
					<linearGradient id="SVGID_5_" gradientUnits="userSpaceOnUse" x1="3136.5964" y1="2929.9084" x2="963.1058" y2="2929.9084" gradientTransform="matrix(-6.050000e-02 0 0 -6.050000e-02 282.9638 435.4296)">
					<stop  offset="0" style="stop-color:#FFFFFF"/>
					<stop  offset="0.1917" style="stop-color:#D9C7A0"/>
					<stop  offset="0.4127" style="stop-color:#B5903B"/>
					<stop  offset="0.5112" style="stop-color:#A97E23"/>
					<stop  offset="0.6285" style="stop-color:#A67A24"/>
					<stop  offset="0.7557" style="stop-color:#9D6E27"/>
					<stop  offset="0.8871" style="stop-color:#875C2C"/>
					<stop  offset="1" style="stop-color:#6E4A2F"/>
				</linearGradient>
				<path class="st5" d="M95.1,261.9c15.3-10.9,37-17.7,61.2-17.7c24.1,0,45.9,6.8,61.1,17.7c14,10,22.6,23.4,22.6,38.1
					c0-31.3-17.1-58.5-42.5-72.9c-11.6-6.6-24.8-10.5-39-10.8c0,0-0.1,0-0.2,0c-0.7,0-1.4,0-2.1,0l0,0l0,0c-0.7,0-1.4,0-2.1,0
					c-0.1,0-0.2,0-0.2,0c-14.1,0.4-27.4,4.3-39,10.8c-12.4,7.7-20.1,18.7-20.1,31C94.8,259.4,94.9,260.7,95.1,261.9z"/>
				
					<linearGradient id="SVGID_6_" gradientUnits="userSpaceOnUse" x1="1860.4219" y1="3379.8604" x2="979.6045" y2="1304.7844" gradientTransform="matrix(-6.050000e-02 0 0 -6.050000e-02 282.9638 435.4296)">
					<stop  offset="0" style="stop-color:#FFFFFF"/>
					<stop  offset="7.562567e-02" style="stop-color:#ECE3D0"/>
					<stop  offset="0.1975" style="stop-color:#D3BF8E"/>
					<stop  offset="0.307" style="stop-color:#C0A057"/>
					<stop  offset="0.4" style="stop-color:#B38C33"/>
					<stop  offset="0.473" style="stop-color:#AC8226"/>
					<stop  offset="0.5169" style="stop-color:#A97E23"/>
					<stop  offset="0.7846" style="stop-color:#885D2C"/>
					<stop  offset="1" style="stop-color:#6E4A2F"/>
				</linearGradient>
				<path class="st6" d="M217.3,338.1c0.2,1.2,0.2,2.5,0.2,3.7c0,12.3-7.8,23.4-20.1,31c25.4-14.4,42.5-41.6,42.5-72.9
					c0-14.7-8.6-28.2-22.6-38.1c-15.3-10.9-37-17.7-61.1-17.7V300C188.3,300,214.6,316.8,217.3,338.1z"/>
			</g>
		</g>
		<circle class="st0" cx="156.2" cy="300" r="84.8"/>
		<g>
			<g>
				<path class="st0" d="M72.7,300c0-46.2,37.5-83.7,83.7-83.7c46.2,0,83.7,37.5,83.7,83.7c0,46.2-37.5,83.7-83.7,83.7
					C110.1,383.7,72.7,346.2,72.7,300z"/>
			</g>
			
				<linearGradient id="SVGID_7_" gradientUnits="userSpaceOnUse" x1="-4397.2876" y1="26019.248" x2="-4397.2876" y2="26019.248" gradientTransform="matrix(-7.760000e-02 0 0 5.160000e-02 -185.1722 -1042.5557)">
				<stop  offset="0" style="stop-color:#FFFFFF"/>
				<stop  offset="1" style="stop-color:#992418"/>
			</linearGradient>
			<polygon class="st7" points="156.1,300 156.1,300 156.1,300 			"/>
			
				<linearGradient id="SVGID_8_" gradientUnits="userSpaceOnUse" x1="-4588.0786" y1="-20970.2695" x2="-6760.2354" y2="-20970.2695" gradientTransform="matrix(-6.050000e-02 0 0 -6.050000e-02 -184.4204 -1010.5089)">
				<stop  offset="0" style="stop-color:#FFFFFF"/>
				<stop  offset="0.1673" style="stop-color:#DECDAB"/>
				<stop  offset="0.4053" style="stop-color:#B79342"/>
				<stop  offset="0.5112" style="stop-color:#A87F1C"/>
				<stop  offset="0.6259" style="stop-color:#A47B1C"/>
				<stop  offset="0.7503" style="stop-color:#9B701B"/>
				<stop  offset="0.8788" style="stop-color:#895E19"/>
				<stop  offset="1" style="stop-color:#774916"/>
			</linearGradient>
			<path class="st8" d="M95,261.9c15.3-10.9,37-17.7,61.1-17.7c24.1,0,45.8,6.8,61.1,17.7c14,10,22.6,23.4,22.6,38.1
				c0-31.2-17.1-58.4-42.4-72.8c-11.6-6.5-24.8-10.4-39-10.8c-0.1,0-0.1,0-0.2,0c-0.7-0.1-1.4-0.1-2.1-0.1l0,0l0,0
				c-0.7,0-1.4,0-2.1,0.1c0,0-0.1,0-0.2,0c-14.2,0.4-27.4,4.3-39,10.8c-12.3,7.7-20.1,18.7-20.1,31C94.7,259.5,94.8,260.7,95,261.9z
				"/>
			
				<linearGradient id="SVGID_9_" gradientUnits="userSpaceOnUse" x1="-5862.3428" y1="-20521.25" x2="-6742.7266" y2="-22595.3047" gradientTransform="matrix(-6.050000e-02 0 0 -6.050000e-02 -184.4204 -1010.5089)">
				<stop  offset="0" style="stop-color:#FFFFFF"/>
				<stop  offset="4.907049e-02" style="stop-color:#F2EBDE"/>
				<stop  offset="0.1783" style="stop-color:#D6C198"/>
				<stop  offset="0.2944" style="stop-color:#C2A460"/>
				<stop  offset="0.393" style="stop-color:#B48E39"/>
				<stop  offset="0.4703" style="stop-color:#AB8323"/>
				<stop  offset="0.5169" style="stop-color:#A87F1C"/>
				<stop  offset="0.7926" style="stop-color:#885D19"/>
				<stop  offset="1" style="stop-color:#774916"/>
			</linearGradient>
			<path class="st9" d="M217.2,338.1c0.2,1.2,0.3,2.5,0.3,3.7c0,12.3-7.8,23.4-20.1,31c25.3-14.4,42.4-41.6,42.4-72.8
				c0-14.7-8.6-28.1-22.6-38.1c-15.3-10.9-37-17.7-61.1-17.7V300C188.1,300,214.4,316.8,217.2,338.1z"/>
			
				<linearGradient id="SVGID_10_" gradientUnits="userSpaceOnUse" x1="7491.5024" y1="22921.1348" x2="5319.2759" y2="22921.1348" gradientTransform="matrix(6.050000e-02 0 0 6.050000e-02 -234.1928 -1044.8539)">
				<stop  offset="0" style="stop-color:#FFFFFF"/>
				<stop  offset="0.1673" style="stop-color:#DECDAB"/>
				<stop  offset="0.4053" style="stop-color:#B79342"/>
				<stop  offset="0.5112" style="stop-color:#A87F1C"/>
				<stop  offset="0.6259" style="stop-color:#A47B1C"/>
				<stop  offset="0.7503" style="stop-color:#9B701B"/>
				<stop  offset="0.8788" style="stop-color:#895E19"/>
				<stop  offset="1" style="stop-color:#774916"/>
			</linearGradient>
			<path class="st10" d="M217.2,338.1c-15.3,10.9-37,17.7-61.1,17.7c-24.1,0-45.8-6.8-61.1-17.7c-14-10-22.6-23.4-22.6-38.1
				c0,31.2,17.1,58.5,42.5,72.8c11.6,6.6,24.8,10.5,39,10.8c0,0,0.1,0,0.2,0c0.7,0,1.4,0,2.1,0l0,0l0,0c0.7,0,1.4,0,2.1,0
				c0.1,0,0.1,0,0.2,0c14.1-0.4,27.4-4.2,39-10.8c12.4-7.7,20.1-18.7,20.1-31C217.4,340.6,217.3,339.4,217.2,338.1z"/>
			
				<linearGradient id="SVGID_11_" gradientUnits="userSpaceOnUse" x1="6215.9829" y1="23370.6914" x2="5335.689" y2="21296.8496" gradientTransform="matrix(6.050000e-02 0 0 6.050000e-02 -234.1928 -1044.8539)">
				<stop  offset="0" style="stop-color:#FFFFFF"/>
				<stop  offset="4.907049e-02" style="stop-color:#F2EBDE"/>
				<stop  offset="0.1783" style="stop-color:#D6C198"/>
				<stop  offset="0.2944" style="stop-color:#C2A460"/>
				<stop  offset="0.393" style="stop-color:#B48E39"/>
				<stop  offset="0.4703" style="stop-color:#AB8323"/>
				<stop  offset="0.5169" style="stop-color:#A87F1C"/>
				<stop  offset="0.7926" style="stop-color:#885D19"/>
				<stop  offset="1" style="stop-color:#774916"/>
			</linearGradient>
			<path class="st11" d="M95,261.9c-0.2-1.3-0.2-2.5-0.2-3.8c0-12.3,7.8-23.4,20.1-31c-25.3,14.4-42.4,41.6-42.4,72.8
				c0,14.7,8.6,28.1,22.6,38.1c15.3,10.9,37,17.7,61.1,17.7V300C124,300,97.7,283.3,95,261.9z"/>
		</g>
	</g>
</g>
</svg>
